<?xml version="1.0" encoding="UTF-8"?>
<!DOCTYPE svg PUBLIC "-//W3C//DTD SVG 1.0//EN" "http://www.w3.org/TR/2001/REC-SVG-20010904/DTD/svg10.dtd">
<!-- Creator: CorelDRAW 2020 (64-Bit Evaluation Version) -->
<svg xmlns="http://www.w3.org/2000/svg" xml:space="preserve" width="3.33334in" height="0.833335in" version="1.0" style="shape-rendering:geometricPrecision; text-rendering:geometricPrecision; image-rendering:optimizeQuality; fill-rule:evenodd; clip-rule:evenodd"
viewBox="0 0 3506.4 876.6"
 xmlns:xlink="http://www.w3.org/1999/xlink"
 xmlns:xodm="http://www.corel.com/coreldraw/odm/2003">
 <defs>
  <style type="text/css">
   <![CDATA[
    .fil0 {fill:white}
   ]]>
  </style>
 </defs>
 <g id="Layer_x0020_1">
  <metadata id="CorelCorpID_0Corel-Layer"/>
  <rect class="fil0" x="0" y="-0" width="3506.4" height="876.6"/>
  <g id="_2425838033840">
   <path class="fil0" d="M1474.73 548.77c30.75,-4.26 52.78,13.95 56.34,40.62 4.09,30.69 -14.12,52.82 -40.45,56.35 -30.89,4.14 -52.84,-13.9 -56.49,-40.13 -4.38,-31.5 13.67,-53.11 40.59,-56.84zm59.57 -34.27c-4.99,-3.47 -5.86,-9.66 -21.13,-18.81 -28.36,-17.02 -69.7,-12.57 -96.41,0.84 -77.43,38.89 -76.35,162.28 -0.74,201.02 18.34,9.4 42.45,14.17 66.12,11.63 18.13,-1.95 29.47,-7 42.18,-17.11 6.27,-4.99 7.7,-8.5 9.98,-9.77 0,34.83 -5.14,58.77 -34.87,67.26 -14.21,4.06 -31.07,3.71 -45.65,0.31 -20.51,-4.78 -22.27,-10.59 -31.88,-18.51l-54.45 32.15c2.84,6.67 12.69,15.88 18.12,20.36 36.57,30.08 107.53,35.55 152.91,18.02 20.72,-8.01 31.15,-16.18 44.98,-31.14 30.98,-33.52 24.41,-84.08 24.41,-127.99 0,-50.86 0,-101.71 -0.04,-152.57l-73.53 0 0 24.3z"/>
   <path class="fil0" d="M2875.99 614.14c-10.46,-70.26 88.38,-78.12 97.27,-17.33 10,68.44 -88.18,78.45 -97.27,17.33zm100.11 -101.91c-3.3,-1.58 -7.91,-11.15 -26.24,-19.71 -31.58,-14.75 -79.28,-7.6 -103.99,13.56 -2.87,2.46 -5.13,4.13 -7.65,6.33 -3.02,2.65 -4.4,4.71 -7.01,7.64 -48.66,54.61 -37.11,156.09 25.1,191.73 27.68,15.86 66.45,20.7 97.27,4.67 5.65,-2.94 12.9,-8.35 17.29,-12.75 1.6,-1.61 3.43,-4.16 5.23,-5.06l0 21.64 73.58 0 0 -317.7 -73.58 0 0 109.66z"/>
   <path class="fil0" d="M2163.86 719.93c5.44,0.81 64.02,0.52 73.58,0.28 0,-33.27 0,-66.52 0,-99.78 0,-15.14 -1.83,-32.5 4.59,-45.05 12.93,-25.32 51.41,-24.14 63.91,-1.03 6.75,12.47 4.99,29.76 4.99,45.38 0,33.49 0,66.97 0,100.45 19.35,0.75 53.15,0.1 74.02,0.09l0 -144.54c0,-49.44 -30.25,-91.04 -84.58,-91.04 -19.9,0 -35.81,5.01 -50.95,15.65 -5.23,3.67 -8.11,7.93 -11.94,10.66l-0.05 -108.36 -73.58 -0.07 0 317.34z"/>
   <path class="fil0" d="M1657.71 720.27c13.99,0 63.94,0.59 74.02,-0.19l-0 -100.04 2.62 2.95c10.49,16.01 58.82,90.19 62.54,97.24 9.75,0.21 82.24,0.67 86.24,-0.34l-61.69 -90.46c-3.08,-4.58 -19.61,-27.51 -20.44,-30.65 0.98,-1.7 1.21,-1.81 2.38,-3.36 1.08,-1.44 1.27,-2.02 2.18,-3.38l23.97 -34.03c1.55,-2.26 2.95,-4.09 4.64,-6.53l14.4 -20.5c1.78,-2.55 3.16,-4.15 4.65,-6.51l14.4 -20.53c1.96,-2.79 8.59,-11.35 9.28,-13.75l-81.78 0c-1.68,0.69 -56.82,87.13 -61.62,92.66 -0.12,0.14 -0.26,0.29 -0.38,0.42l-1.36 -180.45c-6.4,-0.79 -62.85,-0.27 -74.02,-0.26l0 317.7z"/>
   <path class="fil0" d="M2611.01 583.24c1.18,-11.41 11.16,-23.32 16.83,-27.79 8.83,-6.97 18.31,-11.35 32.83,-11.27 13.25,0.07 25.41,3.61 33.34,10.78 7.11,6.43 15.86,17.66 15.71,28.28l-98.71 0zm156.06 94.78c-1.35,-1.78 -45.8,-27.95 -51.24,-31 -3.42,2.08 -8.48,10.22 -24.58,15.85 -11.03,3.86 -24.27,4.8 -36.7,2.76 -16.25,-2.65 -29.05,-10.45 -37.43,-23.32 -1.82,-2.8 -5.94,-10.74 -5.95,-14.65l165.4 0c2.45,-36.83 -1.11,-65.05 -17.97,-91.93 -32.39,-51.68 -108.45,-65.12 -159.05,-35.79 -12.4,7.19 -23.39,15.68 -30.8,25.1 -8.31,10.56 -15.39,19.55 -21.37,35.16 -11.77,30.7 -11.05,65 1.13,94.86 10.53,25.82 30.22,45.28 55,57.39 25.91,12.66 64.67,17.75 95.93,10.33 20.62,-4.89 40.81,-15.12 55.19,-29.34l9.54 -11.41c1.21,-1.47 2.35,-3.57 2.89,-4.02z"/>
   <path class="fil0" d="M3173.15 490.7l-73.35 -0.23 0 113.89c0,11.67 0.82,26.15 0.25,37.31 -0.89,16.82 7.96,37.5 14.93,48.82 18.28,29.7 56.39,41.56 91.03,33.29 13.67,-3.27 26.72,-10.19 36.34,-19.54 1.88,-1.82 2,-2.75 4.16,-4.27l0.09 20.2 74.01 0.09 0 -172.47c0,-10.49 1.38,-50.45 -0.39,-57.61l-73.32 0c-0.91,4.62 -0.31,92.44 -0.31,99.5 0,15.59 1.73,32.94 -4.41,45.99 -11.41,24.26 -51.83,24.48 -64.06,0.75 -6.85,-13.31 -5.03,-29.11 -5.03,-45.34 0,-33.14 -0.84,-67.38 0.05,-100.39z"/>
   <path class="fil0" d="M1175.53 490.47l-73.53 -0.07 0.24 229.82 73.24 0.05c0,-33.28 0,-66.57 0,-99.85 0,-15.83 -1.76,-31.81 4.48,-45.09 11.09,-23.61 50.57,-25.49 63.95,-0.99 6.87,12.59 5.06,29.69 5.06,45.39 0,33.45 0,66.91 0,100.38l74.02 0.18c0,-33.99 0,-67.97 0,-101.95 0,-31.28 2.6,-65.65 -11.37,-90.74 -13.44,-24.14 -32.3,-38.25 -59.86,-41.99 -21.67,-2.95 -45.24,1.26 -62.37,13.29 -4.87,3.42 -12.86,11.58 -13.91,12.26l0.05 -20.67z"/>
   <path class="fil0" d="M2040.62 619.02c0,10 -0.07,20.03 0,30.03 0.06,7.62 -0.26,7.3 -4.35,11.04 -14.6,13.34 -42.04,15.76 -56.13,5.43 -5.03,-3.69 -8.18,-13.91 -6.01,-22.92 5.84,-24.31 46.43,-23.58 66.49,-23.58zm-129.13 -92.69c3.06,1.54 8.37,5.35 11.67,7.68l35.77 24.32c2.99,-0.92 9.54,-6.89 22.07,-10.84 8.58,-2.71 20.25,-4.2 29.88,-2.82 20.56,2.93 29.28,15.6 29.75,37.6 -36.25,0 -68.96,-0.82 -99.44,13.39 -14.27,6.65 -24.58,14.32 -31.35,25.26 -8.38,13.54 -12.32,26.44 -10.47,45.9 6.15,64.4 87.5,70.61 126.24,46.1 10.97,-6.94 11.28,-10.46 14.93,-13.6l0.1 20.95 73.48 0c0,-39.8 0,-79.6 0,-119.4 0,-19.32 0.86,-38.31 -3.81,-56.41 -8.47,-32.83 -30.73,-50.21 -62.71,-56.73 -40.15,-8.18 -87.68,-1.03 -120.39,24.15 -4.33,3.33 -13.68,10.72 -15.72,14.45z"/>
   <path class="fil0" d="M978.57 619.02c0,10 -0.07,20.03 0,30.03 0.05,6.88 -0.05,7.5 -3.88,10.8 -15.46,13.3 -42.15,16.8 -56.51,5.59 -7.09,-5.53 -13.72,-28.04 7.79,-38.99 14.18,-7.21 34.91,-7.44 52.61,-7.44zm-129.13 -92.69l23.79 15.79c4.27,2.9 7.75,5.5 11.86,8.38 2.18,1.53 3.83,2.27 6.04,3.76 2.34,1.58 3.79,3.26 6.45,4.14 8.91,-4.98 8.54,-6.76 21.97,-11 26.25,-8.27 59.01,-3.91 59.03,34.87 -38.88,0 -86.92,-0.73 -116.89,23.88 -6.04,4.96 -9.61,8.05 -14.01,14.63 -7.81,11.68 -11.87,28.49 -10.3,45.94 6.83,75.87 117.24,69.85 140.93,32.78l0.29 20.77 73.47 0c0.09,-39.8 0.09,-79.6 0.09,-119.4 0,-28.09 1.61,-53.42 -12.56,-77.76 -27.4,-47.05 -108.6,-46.55 -156.06,-22.88 -9.04,4.51 -30.33,19.23 -34.09,26.1z"/>
   <path class="fil0" d="M2460.61 645.48c-22.48,4.99 -36.49,25.77 -31.81,48.35 7.55,36.52 55.6,42.68 73.22,15.13 22.36,-34.95 -9.39,-70.59 -41.41,-63.48z"/>
   <path class="fil0" d="M3100.04 641.67c0.57,-11.16 -0.25,-25.64 -0.25,-37.31l0 -113.89 73.35 0.23c-0.45,-0.75 0.34,-0.91 -3.4,-1.01 -12.34,-0.33 -67.02,-0.33 -70.28,0.45 -1.09,4.51 -0.39,65.84 -0.39,75.81 0,8.95 -1.1,73.08 0.97,75.72z"/>
   <path class="fil0" d="M1102.24 720.22l-0.24 -229.82 73.53 0.07c-0.63,-0.4 -0.1,-0.44 -1.48,-0.68l-69.85 -0.07c-1.61,0.17 0.32,-0.17 -1.23,0.22l-0.98 0.47c-1.3,3.59 -0.32,184.01 -0.43,222.89l0.05 5.52c0.28,1.46 0.1,0.57 0.63,1.41z"/>
  </g>
  <path class="fil0" d="M6.51 55.74l772.42 0 0 531.22 -222.75 3.26c-50.3,0.73 -64.67,-6.08 -74.26,-19.26 -9.58,-13.17 -14.37,-34.73 -18.26,-77.84 -3.9,-43.11 -6.89,-107.78 -10.78,-149.7 -3.89,-41.91 -8.68,-61.07 -15.57,-75.74 -6.89,-14.67 -15.87,-24.85 -27.55,-32.64 -11.68,-7.78 -26.05,-13.17 -36.22,-15.27 -10.18,-2.1 -16.17,-0.9 -21.25,1.79 -5.09,2.7 -9.29,6.89 -11.68,11.67 -2.4,4.79 -2.99,10.18 -3.29,17.97 -0.3,7.79 -0.3,17.96 -1.2,72.15 -0.9,54.19 -2.7,152.39 -3.3,211.07 -0.6,58.68 0,77.84 0.6,92.81 0.6,14.97 1.2,25.75 4.79,38.62 3.59,12.88 10.18,27.84 20.66,37.12 10.48,9.29 24.82,15.46 95.51,14.97l324.54 -2.24 0 112.44 -772.42 0 0 -772.42zm348.53 87.75c9.12,0 16.5,9.87 16.5,22.05 0,12.18 -7.39,22.05 -16.5,22.05 -9.11,0 -16.5,-9.87 -16.5,-22.05 0,-12.18 7.39,-22.05 16.5,-22.05zm37.24 11.07c6.97,0 12.63,8.82 12.63,19.7 0,10.88 -5.66,19.7 -12.63,19.7 -6.97,0 -12.63,-8.82 -12.63,-19.7 0,-10.88 5.66,-19.7 12.63,-19.7zm28.98 24.19c5.17,0 9.36,7.1 9.36,15.87 0,8.76 -4.19,15.87 -9.36,15.87 -5.17,0 -9.36,-7.11 -9.36,-15.87 0,-8.77 4.19,-15.87 9.36,-15.87zm22.07 29.3c5.17,0 9.36,7.1 9.36,15.87 0,8.76 -4.19,15.87 -9.36,15.87 -5.17,0 -9.36,-7.11 -9.36,-15.87 0,-8.77 4.19,-15.87 9.36,-15.87z"/>
  <g id="_2425838042480">
   <path class="fil0" d="M371.51 167.04c0.02,0.49 0.04,0.99 0.04,1.5 0,12.18 -7.39,22.05 -16.5,22.05 -9.11,0 -16.5,-9.87 -16.5,-22.05 0,-0.5 0.02,-1 0.04,-1.5 0.58,11.48 7.72,20.55 16.46,20.55 8.74,0 15.89,-9.07 16.46,-20.55z"/>
   <path class="fil0" d="M404.88 175.58l0.03 1.34c0,10.88 -5.66,19.69 -12.63,19.69 -6.97,0 -12.63,-8.82 -12.63,-19.69l0.03 -1.34c0.44,10.25 5.92,18.36 12.6,18.36 6.68,0 12.16,-8.1 12.6,-18.36z"/>
   <path class="fil0" d="M430.6 195.69l0.02 1.08c0,8.76 -4.19,15.87 -9.36,15.87 -5.17,0 -9.36,-7.11 -9.36,-15.87l0.02 -1.08c0.33,8.26 4.38,14.79 9.34,14.79 4.96,0 9.01,-6.53 9.34,-14.79z"/>
   <path class="fil0" d="M452.67 224.99l0.02 1.08c0,8.76 -4.19,15.87 -9.36,15.87 -5.17,0 -9.36,-7.11 -9.36,-15.87l0.02 -1.08c0.33,8.26 4.38,14.79 9.34,14.79 4.96,0 9.01,-6.53 9.34,-14.79z"/>
  </g>
  <path class="fil0" d="M777.85 715.72l-120.9 112.44 -650.44 0 0 -304.49 335.95 -293.51c-0.7,0.99 -1.32,2.03 -1.85,3.09 -2.4,4.79 -2.99,10.18 -3.29,17.97 -0.3,7.79 -0.3,17.96 -1.2,72.15 -0.9,54.19 -2.7,152.39 -3.3,211.07 -0.6,58.68 0,77.84 0.6,92.81 0.6,14.97 1.2,25.75 4.79,38.62 3.59,12.88 10.18,27.84 20.66,37.12 10.48,9.29 24.82,15.46 95.51,14.97l323.46 -2.24z"/>
 </g>
</svg>
