<?xml version="1.0" encoding="UTF-8"?>
<!DOCTYPE svg PUBLIC "-//W3C//DTD SVG 1.0//EN" "http://www.w3.org/TR/2001/REC-SVG-20010904/DTD/svg10.dtd">
<!-- Creator: CorelDRAW 2020 (64-Bit Evaluation Version) -->
<svg xmlns="http://www.w3.org/2000/svg" xml:space="preserve" width="3.33333in" height="0.833331in" version="1.0" style="shape-rendering:geometricPrecision; text-rendering:geometricPrecision; image-rendering:optimizeQuality; fill-rule:evenodd; clip-rule:evenodd"
viewBox="0 0 3333.33 833.33"
 xmlns:xlink="http://www.w3.org/1999/xlink"
 xmlns:xodm="http://www.corel.com/coreldraw/odm/2003">
 <defs>
  <style type="text/css">
   <![CDATA[
    .fil0 {fill:none}
    .fil2 {fill:#ECB811}
    .fil5 {fill:#D4A60F}
    .fil4 {fill:#ECB811}
    .fil1 {fill:#ECB811}
    .fil6 {fill:#ECB811}
    .fil3 {fill:white}
   ]]>
  </style>
 </defs>
 <g id="Layer_x0020_1">
  <metadata id="CorelCorpID_0Corel-Layer"/>
  <rect class="fil0" x="-2.81" y="0.21" width="3333.34" height="833.33"/>
  <g id="_3022483265904">
   <g>
    <path class="fil1" d="M88.46 462.93c1.41,1.07 0.71,16.14 0.71,18.73l-0.04 302.21 618.26 -0.02 115.07 -0 0.28 -101.11 -66.33 0.33c-4.19,0 -15,0.34 -30.27,0.8 -98.07,1.09 -233.61,2.05 -243.61,-2.11 -38.03,0.24 -68.26,-17.92 -81.08,-48.5l-0.04 -0.37c-3.83,-8.4 -6.04,-32.63 -7.21,-64.58 -0.93,-97.28 4.1,-253.31 2.41,-329.7l0.28 -1.11 -0.35 -2.05 1.02 -2.65 -0.28 -1.89 0.66 -1.59 0.13 -2.01 0.74 -1.38 -0.15 -0.99 0.81 -1.14 -0 -1.21 0.53 -1.16 0.11 -0.9c-0.17,-1.41 -0.58,-1.19 0.59,-1.19l-0.04 -0.44c-0.05,-1.2 -0.4,-1 0.62,-1l0.15 -0.79c-0.15,-1.13 -0.41,-0.86 0.7,-0.86l-0.03 -0.48c-0.15,-1.13 -0.41,-0.86 0.7,-0.86l0.48 -1.39c0.03,-1.07 -0.26,-0.83 0.77,-0.83l0.19 -0.02 1.18 -1.91c1.39,-1.13 1.04,-1.28 2.1,-2.4 0.92,-0.98 1.5,-1.28 2.47,-2.07 0,-1.01 -0.25,-0.75 0.75,-0.8l1.35 -0.53c0,-0.97 -0.22,-0.69 0.82,-0.69l0.52 -0c0,-0.96 -0.21,-0.68 0.82,-0.65l2.7 -0.64 1.25 -0.76 1.52 0.13 2.51 -0.82 7.28 0.07 2.42 0.62 2.44 -0.13 1.73 0.92 1.23 0.06 1.23 0.51 1.35 -0.07 1.17 0.81 0.96 0.1 1.15 0.53 0.95 0.12 1.06 0.56 1.15 0.01c1.39,-0.16 1.17,-0.57 1.17,0.59l2.3 0.7c1.22,-0.16 1,-0.5 1,0.59l2.3 0.78c1.34,-0.14 1.11,-0.52 1.11,0.63l0.37 -0.05c1.14,-0.09 0.92,-0.39 0.92,0.65l0.5 0c1.22,-0.06 1.01,-0.41 1.01,0.63l0.67 0.19c1.21,-0.19 0.96,-0.5 0.96,0.66l0.5 -0.03c1.11,-0.15 0.84,-0.4 0.84,0.7l2.73 1.21c1.09,-0.06 0.84,-0.33 0.84,0.71l0.29 0.02c1.11,-0.09 0.84,-0.35 0.84,0.74l1.23 0.62 0.66 0.75 1.36 0.59c2.33,0.87 1.05,0.44 1.76,1.26l0.93 0.74c1.5,0.83 0.9,0.53 1.41,1.42l2.56 1.96c2.27,1.28 3.5,2.5 4.77,4.78l2.02 2.39c0.82,0.65 0.38,-0.39 1.34,1.66l1.29 1.87 0.81 0.66 1.11 2.19 0.76 0.73 0.58 1.28 0.76 0.73 1.35 2.46c0.98,0 0.69,-0.22 0.71,0.82l1.27 2.5c1.14,0 0.89,-0.28 0.74,0.84l-0.06 0.63c0.96,0 0.72,-0.24 0.71,0.74l0.01 0.52c0.95,0 0.67,-0.22 0.66,0.82l0.01 0.52c0.96,0 0.67,-0.22 0.67,0.82l0.01 0.52c0.96,0 0.68,-0.21 0.64,0.82l0.04 0.48c1.13,0 0.83,-0.24 0.64,0.96l0.82 2.09 0.58 1.08 -0.04 0.6c1.03,0 0.69,-0.2 0.6,0.98l0.74 2.38 0.92 1.1 -0.12 0.57 0.56 1.08 0.69 2.44c1.17,0 0.8,-0.23 0.61,1.09l0.01 1.18 0.56 1.06 0.06 1.04 0.83 1.16 0.04 1.02 0.54 1.16 0.03 1.11 0.51 1.23 0.04 1.13 0.76 1.24 0.01 1.19 0.72 1.33 -0.06 1.35 0.73 1.33 -0.09 1.44 0.74 1.33 -0.13 1.53 0.91 1.59 -0.18 1.59 0.68 1.49 0.66 5.23 0.79 1.92 0.08 2.19 0.59 1.85 -0.09 2.02 0.87 2.44 -0.26 1.76 0.76 2.67 -0.03 2.54 0.77 2.68 -0.02 3.11 0.6 2.5 -0.05 3.21 0.78 3.36 -0.17 3.53 0.78 4 0.13 6.06 0.54 3.34 -0.03 6.48c0.87,1.88 0.81,3.13 0.7,5.6l0.01 9.76c1,2.41 1.16,7.64 0.77,10.82l-0.09 18.06c1.28,3.13 1.48,29.41 0.79,34.24l-0.12 22.16c1.07,2.61 1.19,8.68 0.79,12.09l-0.12 8.06c0.77,1.74 0.89,3.63 0.79,6.04l-0.17 4.87 0.85 4.54 -0.18 3.53 0.74 3.42 -0.03 3.21 0.62 2.4 -0.01 3.15 0.76 2.67 -0.09 2.7 0.83 2.51 -0.16 2.19 0.83 2.51 -0.12 2.11 0.75 2 0.13 2.1 0.48 1.41 0.05 1.7 0.69 1.5 -0.09 1.44 0.72 1.32 0.01 1.19 0.54 1.14 0.3 1.12c1.08,0 0.7,-0.21 0.59,1.09l0.61 2.7 0.62 0.82 1.94 4.72 0.72 0.73 0.17 0.19c0.77,0.77 0.35,-0.67 1.15,1.91l0.78 0.87 5.09 4.83 0.93 0.76 0.65 0.75 1.52 0.51c1.09,-0.06 0.84,-0.33 0.84,0.71l0.11 0.13 0.81 0.7 0.71 -0.09c1.22,-0.14 0.98,-0.46 0.98,0.68l0.43 -0.05c1.22,-0.13 1,-0.47 1,0.61l0.58 -0.04 0.92 0.96 0.85 -0.16c1.37,-0.16 1.17,-0.57 1.17,0.54l0.84 0.13 1.17 0.8 3.78 0.43 1.59 0.91 1.6 -0.17 2.17 0.94 2.33 -0.28 2.25 0.74 2.4 0.02 3.34 0.78 3.03 -0.24 4.7 0.78c5.6,-0.35 13.36,0.38 19.28,0.48 6.67,0.11 13.48,0.12 20.15,0.03 10.77,-0.15 29.01,-1.56 38.84,-0.47 2.67,-1.18 11.84,-1.31 15.37,-0.82l11.76 0.24c2.63,-1.27 11.8,-1.12 15.43,-0.78l16.81 0.11c2.54,-1.22 20,-1.45 23.83,-0.91l19.14 0.24c3.56,-1.72 55.51,-1.13 64.14,-1.13l0.17 -508.67 -733.99 0 -0.03 413.07z"/>
    <g>
     <ellipse class="fil2" cx="416.49" cy="161.43" rx="15.71" ry="21.31"/>
     <ellipse class="fil3" cx="416.49" cy="158.54" rx="15.71" ry="21.31"/>
    </g>
    <g>
     <ellipse class="fil2" cx="451.94" cy="169.54" rx="12.02" ry="19.04"/>
     <ellipse class="fil3" cx="451.94" cy="166.96" rx="12.02" ry="19.04"/>
    </g>
    <g>
     <ellipse class="fil2" cx="479.52" cy="188.72" rx="8.91" ry="15.34"/>
     <ellipse class="fil3" cx="479.52" cy="186.64" rx="8.91" ry="15.34"/>
    </g>
    <g>
     <ellipse class="fil2" cx="500.53" cy="217.04" rx="8.91" ry="15.34"/>
     <ellipse class="fil3" cx="500.53" cy="214.96" rx="8.91" ry="15.34"/>
    </g>
    <path class="fil4" d="M89.13 783.88l0.04 -302.21c0,-2.59 0.7,-17.67 -0.71,-18.73 0.94,32.43 -0.85,313.63 0.07,319.54 0.2,1.28 0.21,0.76 0.6,1.41z"/>
    <path class="fil5" d="M89.17 501.85l-0.04 282.03 618.26 -0.02 0 0 115.35 -101.11c-39.16,0.2 -325.5,5.13 -340.21,-0.98 -49.72,0.32 -86.1,-30.81 -87.69,-80.03 -2.96,-91.62 3.83,-281.85 1.69,-366.28l1.02 -2.65 -0.28 -1.89 0.66 -1.59 0.13 -2.01 0.74 -1.38 -0.15 -0.99 0.81 -1.14 -0 -1.21 0.53 -1.16 0.11 -0.9c-0.17,-1.41 -0.58,-1.19 0.59,-1.19l-0.04 -0.44c-0.05,-1.2 -0.4,-1 0.62,-1l0.15 -0.79c-0.15,-1.13 -0.41,-0.86 0.7,-0.86l-0.03 -0.48c-0.15,-1.13 -0.41,-0.86 0.7,-0.86l0.48 -1.39c0.03,-1.07 -0.26,-0.83 0.77,-0.83l0.19 -0.02 1.18 -1.91c1.39,-1.13 1.04,-1.28 2.1,-2.4l-318.33 293.45z"/>
   </g>
   <g>
    <path class="fil6" d="M1484.2 518.42c29.23,-4.05 50.18,13.26 53.56,38.61 3.89,29.17 -13.42,50.22 -38.45,53.57 -29.37,3.93 -50.24,-13.21 -53.7,-38.15 -4.17,-29.94 13,-50.49 38.59,-54.04zm56.63 -32.57c-4.74,-3.3 -5.57,-9.18 -20.08,-17.89 -26.96,-16.18 -66.26,-11.94 -91.65,0.8 -73.61,36.97 -72.58,154.27 -0.7,191.1 17.43,8.93 40.36,13.47 62.85,11.06 17.24,-1.85 28.02,-6.65 40.1,-16.27 5.96,-4.75 7.32,-8.08 9.48,-9.28 0,33.11 -4.89,55.87 -33.15,63.94 -13.51,3.86 -29.54,3.52 -43.39,0.29 -19.5,-4.54 -21.17,-10.07 -30.3,-17.59l-51.76 30.56c2.7,6.34 12.06,15.1 17.23,19.35 34.76,28.6 102.22,33.79 145.36,17.13 19.7,-7.61 29.61,-15.38 42.76,-29.6 29.45,-31.86 23.2,-79.93 23.2,-121.67 0,-48.35 0,-96.69 -0.04,-145.04l-69.91 0 0 23.1z"/>
    <path class="fil6" d="M2816.3 580.57c-9.94,-66.79 84.02,-74.27 92.47,-16.48 9.51,65.06 -83.83,74.57 -92.47,16.48zm95.17 -96.88c-3.13,-1.5 -7.52,-10.6 -24.94,-18.74 -30.02,-14.02 -75.37,-7.23 -98.85,12.89 -2.73,2.33 -4.88,3.93 -7.27,6.02 -2.87,2.52 -4.19,4.48 -6.67,7.26 -46.26,51.91 -35.28,148.39 23.86,182.26 26.31,15.07 63.17,19.68 92.47,4.44 5.37,-2.8 12.26,-7.94 16.43,-12.12 1.52,-1.53 3.26,-3.95 4.97,-4.81l0 20.57 69.95 0 0 -302.02 -69.95 0 0 104.25z"/>
    <path class="fil6" d="M2139.31 681.13c5.17,0.77 60.86,0.5 69.95,0.26 0,-31.63 0,-63.24 0,-94.85 0,-14.39 -1.74,-30.9 4.36,-42.83 12.3,-24.07 48.87,-22.94 60.76,-0.98 6.42,11.86 4.74,28.29 4.74,43.14 0,31.83 0,63.66 0,95.5 18.39,0.72 50.52,0.09 70.36,0.09l0 -137.4c0,-47 -28.76,-86.55 -80.4,-86.55 -18.92,0 -34.04,4.76 -48.43,14.88 -4.97,3.49 -7.71,7.54 -11.35,10.14l-0.04 -103.01 -69.95 -0.07 0 301.68z"/>
    <path class="fil6" d="M1658.15 681.46c13.3,0 60.78,0.56 70.37,-0.19l-0 -95.11 2.49 2.8c9.97,15.22 55.92,85.74 59.45,92.44 9.27,0.2 78.19,0.64 81.98,-0.33l-58.65 -85.99c-2.93,-4.35 -18.64,-26.15 -19.43,-29.14 0.93,-1.62 1.15,-1.72 2.26,-3.19 1.02,-1.37 1.2,-1.92 2.07,-3.22l22.78 -32.35c1.48,-2.15 2.81,-3.89 4.41,-6.2l13.69 -19.48c1.69,-2.42 3,-3.95 4.42,-6.19l13.69 -19.52c1.86,-2.65 8.16,-10.79 8.82,-13.07l-77.75 0c-1.6,0.66 -54.01,82.83 -58.58,88.09 -0.11,0.13 -0.24,0.27 -0.36,0.4l-1.3 -171.54c-6.09,-0.75 -59.75,-0.25 -70.37,-0.24l0 302.02z"/>
    <path class="fil6" d="M2564.4 551.19c1.12,-10.85 10.61,-22.17 16,-26.42 8.39,-6.62 17.41,-10.79 31.21,-10.72 12.6,0.06 24.15,3.43 31.7,10.25 6.76,6.11 15.07,16.79 14.94,26.89l-93.84 0zm148.36 90.11c-1.28,-1.69 -43.54,-26.57 -48.71,-29.47 -3.25,1.98 -8.06,9.72 -23.37,15.07 -10.49,3.67 -23.07,4.56 -34.89,2.63 -15.45,-2.52 -27.61,-9.93 -35.58,-22.17 -1.73,-2.66 -5.65,-10.21 -5.65,-13.93l157.23 0c2.33,-35.01 -1.06,-61.84 -17.08,-87.39 -30.79,-49.13 -103.1,-61.91 -151.2,-34.02 -11.79,6.83 -22.23,14.91 -29.28,23.86 -7.9,10.04 -14.63,18.59 -20.32,33.43 -11.19,29.19 -10.5,61.79 1.07,90.18 10.01,24.55 28.73,43.05 52.29,54.56 24.63,12.04 61.48,16.87 91.2,9.82 19.6,-4.65 38.8,-14.37 52.46,-27.89l9.07 -10.84c1.15,-1.4 2.23,-3.39 2.75,-3.82z"/>
    <path class="fil6" d="M3098.79 463.22l-69.73 -0.22 0 108.27c0,11.09 0.78,24.86 0.24,35.47 -0.85,15.99 7.57,35.65 14.2,46.41 17.37,28.24 53.61,39.51 86.54,31.65 13,-3.11 25.4,-9.69 34.55,-18.57 1.79,-1.73 1.9,-2.61 3.95,-4.06l0.09 19.2 70.35 0.09 0 -163.96c0,-9.97 1.31,-47.96 -0.37,-54.76l-69.7 0c-0.87,4.39 -0.29,87.88 -0.29,94.59 0,14.82 1.65,31.31 -4.19,43.72 -10.85,23.06 -49.27,23.28 -60.89,0.71 -6.52,-12.66 -4.78,-27.67 -4.78,-43.1 0,-31.51 -0.8,-64.06 0.04,-95.44z"/>
    <path class="fil6" d="M1199.77 463l-69.9 -0.06 0.23 218.48 69.62 0.05c0,-31.64 0,-63.28 0,-94.92 0,-15.05 -1.67,-30.24 4.26,-42.87 10.54,-22.44 48.08,-24.24 60.79,-0.94 6.53,11.97 4.81,28.23 4.81,43.15 0,31.8 0,63.61 0,95.42l70.37 0.17c0,-32.31 0,-64.62 0,-96.92 0,-29.74 2.47,-62.41 -10.81,-86.26 -12.78,-22.95 -30.7,-36.36 -56.9,-39.92 -20.6,-2.8 -43.01,1.2 -59.3,12.63 -4.63,3.25 -12.22,11 -13.22,11.65l0.05 -19.65z"/>
    <path class="fil6" d="M2022.16 585.21c0,9.51 -0.07,19.04 0,28.55 0.06,7.24 -0.25,6.94 -4.13,10.49 -13.88,12.69 -39.97,14.98 -53.36,5.16 -4.78,-3.51 -7.77,-13.22 -5.71,-21.79 5.56,-23.11 44.14,-22.41 63.2,-22.41zm-122.76 -88.11c2.91,1.46 7.96,5.08 11.09,7.3l34 23.12c2.84,-0.87 9.07,-6.55 20.98,-10.3 8.16,-2.57 19.25,-3.99 28.41,-2.69 19.54,2.78 27.83,14.83 28.28,35.74 -34.46,0 -65.56,-0.78 -94.54,12.72 -13.56,6.32 -23.37,13.61 -29.81,24.01 -7.96,12.87 -11.71,25.14 -9.95,43.63 5.84,61.22 83.18,67.12 120.01,43.83 10.43,-6.59 10.72,-9.94 14.2,-12.93l0.09 19.91 69.85 0c0,-37.83 0,-75.67 0,-113.51 0,-18.37 0.82,-36.42 -3.62,-53.62 -8.06,-31.21 -29.21,-47.73 -59.62,-53.93 -38.17,-7.78 -83.35,-0.98 -114.44,22.96 -4.11,3.17 -13,10.19 -14.94,13.74z"/>
    <path class="fil6" d="M1012.53 585.21c0,9.51 -0.07,19.04 0,28.55 0.05,6.54 -0.04,7.13 -3.69,10.27 -14.69,12.65 -40.07,15.97 -53.72,5.31 -6.74,-5.26 -13.05,-26.66 7.4,-37.06 13.48,-6.85 33.19,-7.07 50.01,-7.07zm-122.76 -88.11l22.61 15.01c4.06,2.76 7.37,5.22 11.27,7.97 2.07,1.46 3.65,2.16 5.74,3.57 2.22,1.5 3.6,3.1 6.13,3.94 8.47,-4.74 8.11,-6.43 20.88,-10.45 24.95,-7.87 56.09,-3.71 56.12,33.15 -36.96,0 -82.63,-0.69 -111.12,22.7 -5.74,4.72 -9.14,7.65 -13.32,13.91 -7.42,11.1 -11.28,27.08 -9.79,43.67 6.49,72.13 111.46,66.4 133.98,31.16l0.27 19.74 69.84 0c0.08,-37.83 0.08,-75.67 0.08,-113.51 0,-26.7 1.53,-50.79 -11.94,-73.93 -26.04,-44.73 -103.24,-44.25 -148.36,-21.75 -8.59,4.29 -28.83,18.28 -32.41,24.81z"/>
    <path class="fil6" d="M2421.43 610.35c-21.37,4.74 -34.69,24.5 -30.24,45.96 7.18,34.72 52.85,40.57 69.61,14.38 21.26,-33.22 -8.93,-67.1 -39.37,-60.35z"/>
    <path class="fil6" d="M3029.3 606.74c0.54,-10.61 -0.24,-24.38 -0.24,-35.47l0 -108.27 69.73 0.22c-0.43,-0.71 0.32,-0.87 -3.23,-0.96 -11.73,-0.31 -63.71,-0.31 -66.81,0.43 -1.03,4.29 -0.37,62.59 -0.37,72.07 0,8.5 -1.04,69.47 0.92,71.98z"/>
    <path class="fil6" d="M1130.1 681.41l-0.23 -218.48 69.9 0.06c-0.6,-0.38 -0.09,-0.42 -1.41,-0.64l-66.4 -0.07c-1.53,0.16 0.31,-0.17 -1.17,0.2l-0.93 0.44c-1.24,3.42 -0.31,174.93 -0.41,211.89l0.04 5.25c0.27,1.39 0.09,0.54 0.6,1.34z"/>
   </g>
  </g>
 </g>
</svg>
