<?xml version="1.0" encoding="UTF-8"?>
<!DOCTYPE svg PUBLIC "-//W3C//DTD SVG 1.0//EN" "http://www.w3.org/TR/2001/REC-SVG-20010904/DTD/svg10.dtd">
<!-- Creator: CorelDRAW 2020 (64-Bit Evaluation Version) -->
<svg xmlns="http://www.w3.org/2000/svg" xml:space="preserve" width="0.734295in" height="0.734303in" version="1.0" style="shape-rendering:geometricPrecision; text-rendering:geometricPrecision; image-rendering:optimizeQuality; fill-rule:evenodd; clip-rule:evenodd"
viewBox="0 0 99.55 99.55"
 xmlns:xlink="http://www.w3.org/1999/xlink"
 xmlns:xodm="http://www.corel.com/coreldraw/odm/2003">
 <defs>
  <style type="text/css">
   <![CDATA[
    .fil2 {fill:#B18A0D}
    .fil3 {fill:#D4A60F}
    .fil0 {fill:#ECB811}
    .fil1 {fill:white}
   ]]>
  </style>
 </defs>
 <g id="Layer_x0020_1">
  <metadata id="CorelCorpID_0Corel-Layer"/>
  <g id="_2168350068720">
   <path class="fil0" d="M49.77 0l0 0c27.38,0 49.77,22.4 49.77,49.77l0 0c0,27.38 -22.4,49.77 -49.77,49.77l-0 0c-27.38,0 -49.77,-22.4 -49.77,-49.77l0 -0c0,-27.38 22.4,-49.77 49.77,-49.77z"/>
   <path class="fil1" d="M95.86 68.51c-2.58,6.29 -6.4,11.94 -11.17,16.64l-26.97 0.19c-9.11,0.06 -10.96,-0.73 -12.31,-1.93 -1.35,-1.2 -2.2,-3.12 -2.66,-4.78 -0.46,-1.66 -0.54,-3.05 -0.62,-4.98 -0.08,-1.93 -0.15,-4.4 -0.08,-11.96 0.08,-7.56 0.31,-20.22 0.42,-27.2 0.12,-6.98 0.12,-8.3 0.15,-9.3 0.04,-1 0.12,-1.7 0.42,-2.32 0.31,-0.62 0.85,-1.16 1.51,-1.5 0.66,-0.35 1.43,-0.5 2.74,-0.23 1.31,0.27 3.16,0.96 4.67,1.97 1.5,1 2.66,2.32 3.55,4.21 0.89,1.89 1.5,4.36 2.01,9.76 0.5,5.4 0.89,13.74 1.39,19.29 0.5,5.56 1.12,8.33 2.35,10.03 1.24,1.7 3.09,2.58 9.57,2.48l25.02 -0.37z"/>
   <g>
    <path class="fil2" d="M44.92 11.69c1.17,0 2.13,1.27 2.13,2.84 0,1.57 -0.95,2.84 -2.13,2.84 -1.17,0 -2.13,-1.27 -2.13,-2.84 0,-1.57 0.95,-2.84 2.13,-2.84z"/>
    <path class="fil1" d="M44.92 11.31c1.17,0 2.13,1.27 2.13,2.84 0,1.57 -0.95,2.84 -2.13,2.84 -1.17,0 -2.13,-1.27 -2.13,-2.84 0,-1.57 0.95,-2.84 2.13,-2.84z"/>
   </g>
   <g>
    <path class="fil2" d="M49.72 13.08c0.9,0 1.63,1.14 1.63,2.54 0,1.4 -0.73,2.54 -1.63,2.54 -0.9,0 -1.63,-1.14 -1.63,-2.54 0,-1.4 0.73,-2.54 1.63,-2.54z"/>
    <path class="fil1" d="M49.72 12.73c0.9,0 1.63,1.14 1.63,2.54 0,1.4 -0.73,2.54 -1.63,2.54 -0.9,0 -1.63,-1.14 -1.63,-2.54 0,-1.4 0.73,-2.54 1.63,-2.54z"/>
   </g>
   <path class="fil2" d="M53.45 16.13c0.67,0 1.21,0.92 1.21,2.05 0,1.13 -0.54,2.05 -1.21,2.05 -0.67,0 -1.21,-0.92 -1.21,-2.05 0,-1.13 0.54,-2.05 1.21,-2.05z"/>
   <path class="fil2" d="M56.3 19.91c0.67,0 1.21,0.92 1.21,2.05 0,1.13 -0.54,2.05 -1.21,2.05 -0.67,0 -1.21,-0.92 -1.21,-2.05 0,-1.13 0.54,-2.05 1.21,-2.05z"/>
   <path class="fil1" d="M53.45 15.85c0.67,0 1.21,0.92 1.21,2.05 0,1.13 -0.54,2.05 -1.21,2.05 -0.67,0 -1.21,-0.92 -1.21,-2.05 0,-1.13 0.54,-2.05 1.21,-2.05z"/>
   <path class="fil1" d="M56.3 19.63c0.67,0 1.21,0.92 1.21,2.05 0,1.13 -0.54,2.05 -1.21,2.05 -0.67,0 -1.21,-0.92 -1.21,-2.05 0,-1.13 0.54,-2.05 1.21,-2.05z"/>
   <path class="fil3" d="M49.77 99.55l-0 0c-24.06,0 -44.27,-17.3 -48.82,-40.08l42.34 -36.99c-0.09,0.13 -0.17,0.26 -0.24,0.4 -0.31,0.62 -0.39,1.31 -0.42,2.32 -0.04,1 -0.04,2.31 -0.15,9.3 -0.12,6.98 -0.35,19.64 -0.42,27.2 -0.08,7.56 0,10.03 0.08,11.96 0.08,1.93 0.15,3.32 0.62,4.98 0.46,1.66 1.31,3.59 2.66,4.78 1.35,1.2 3.2,1.99 12.31,1.93l26.97 -0.19c-9,8.88 -21.35,14.39 -34.91,14.39z"/>
  </g>
 </g>
</svg>
